{
  "accessors": [
    {
      "bufferView": 2,
      "componentType": 5126,
      "count": 65533,
      "max": [
        1.132222056388855,
        1.6816229820251465,
        3.9221279621124268
      ],
      "min": [
        -1.1327940225601196,
        -4.2160792350769043,
        -1.7468580007553101
      ],
      "type": "VEC3"
    },
    {
      "bufferView": 2,
      "byteOffset": 786396,
      "componentType": 5126,
      "count": 65533,
      "max": [
        0.99999034404754639,
        0.99984097480773926,
        0.99991524219512939
      ],
      "min": [
        -0.99995362758636475,
        -0.99998265504837036,
        -0.99983000755310059
      ],
      "type": "VEC3"
    },
    {
      "bufferView": 3,
      "componentType": 5126,
      "count": 65533,
      "max": [
        0,
        0,
        0,
        1
      ],
      "min": [
        0,
        0,
        0,
        1
      ],
      "type": "VEC4"
    },
    {
      "bufferView": 3,
      "byteOffset": 1048528,
      "componentType": 5126,
      "count": 65533,
      "max": [
        1,
        1,
        1,
        1
      ],
      "min": [
        0.98039215803146362,
        0.98039215803146362,
        0.98039215803146362,
        1
      ],
      "type": "VEC4"
    },
    {
      "bufferView": 1,
      "componentType": 5126,
      "count": 65533,
      "max": [
        0,
        0
      ],
      "min": [
        0,
        0
      ],
      "type": "VEC2"
    },
    {
      "bufferView": 0,
      "componentType": 5125,
      "count": 65541,
      "max": [
        65532
      ],
      "min": [
        0
      ],
      "type": "SCALAR"
    },
    {
      "bufferView": 2,
      "byteOffset": 1572792,
      "componentType": 5126,
      "count": 65532,
      "max": [
        1.1329959630966187,
        1.6816229820251465,
        3.9225211143493652
      ],
      "min": [
        -1.1327940225601196,
        -4.2163581848144531,
        -1.7468580007553101
      ],
      "type": "VEC3"
    },
    {
      "bufferView": 2,
      "byteOffset": 2359176,
      "componentType": 5126,
      "count": 65532,
      "max": [
        0.99997007846832275,
        0.99994879961013794,
        0.99999964237213135
      ],
      "min": [
        -0.99985873699188232,
        -0.99999308586120605,
        -0.99996954202651978
      ],
      "type": "VEC3"
    },
    {
      "bufferView": 3,
      "byteOffset": 2097056,
      "componentType": 5126,
      "count": 65532,
      "max": [
        0,
        0,
        0,
        1
      ],
      "min": [
        0,
        0,
        0,
        1
      ],
      "type": "VEC4"
    },
    {
      "bufferView": 3,
      "byteOffset": 3145568,
      "componentType": 5126,
      "count": 65532,
      "max": [
        1,
        1,
        1,
        1
      ],
      "min": [
        0.98039215803146362,
        0.98039215803146362,
        0.98039215803146362,
        1
      ],
      "type": "VEC4"
    },
    {
      "bufferView": 1,
      "byteOffset": 524264,
      "componentType": 5126,
      "count": 65532,
      "max": [
        0,
        0
      ],
      "min": [
        0,
        0
      ],
      "type": "VEC2"
    },
    {
      "bufferView": 0,
      "byteOffset": 262164,
      "componentType": 5125,
      "count": 65538,
      "max": [
        65531
      ],
      "min": [
        0
      ],
      "type": "SCALAR"
    },
    {
      "bufferView": 2,
      "byteOffset": 3145560,
      "componentType": 5126,
      "count": 65532,
      "max": [
        1.132222056388855,
        1.6831309795379639,
        3.9225399494171143
      ],
      "min": [
        -1.1294070482254028,
        -4.2163581848144531,
        -1.7459959983825684
      ],
      "type": "VEC3"
    },
    {
      "bufferView": 2,
      "byteOffset": 3931944,
      "componentType": 5126,
      "count": 65532,
      "max": [
        0.99991381168365479,
        0.9998965859413147,
        0.99989050626754761
      ],
      "min": [
        -0.9998396635055542,
        -0.99990004301071167,
        -0.99984955787658691
      ],
      "type": "VEC3"
    },
    {
      "bufferView": 3,
      "byteOffset": 4194080,
      "componentType": 5126,
      "count": 65532,
      "max": [
        0,
        0,
        0,
        1
      ],
      "min": [
        0,
        0,
        0,
        1
      ],
      "type": "VEC4"
    },
    {
      "bufferView": 3,
      "byteOffset": 5242592,
      "componentType": 5126,
      "count": 65532,
      "max": [
        1,
        1,
        1,
        1
      ],
      "min": [
        0.9843137264251709,
        0.9843137264251709,
        0.9843137264251709,
        1
      ],
      "type": "VEC4"
    },
    {
      "bufferView": 1,
      "byteOffset": 1048520,
      "componentType": 5126,
      "count": 65532,
      "max": [
        0,
        0
      ],
      "min": [
        0,
        0
      ],
      "type": "VEC2"
    },
    {
      "bufferView": 0,
      "byteOffset": 524316,
      "componentType": 5125,
      "count": 65541,
      "max": [
        65531
      ],
      "min": [
        0
      ],
      "type": "SCALAR"
    },
    {
      "bufferView": 2,
      "byteOffset": 4718328,
      "componentType": 5126,
      "count": 65533,
      "max": [
        1.132768988609314,
        1.6831309795379639,
        3.9221279621124268
      ],
      "min": [
        -1.1327940225601196,
        -4.2148699760437012,
        -1.7462420463562012
      ],
      "type": "VEC3"
    },
    {
      "bufferView": 2,
      "byteOffset": 5504724,
      "componentType": 5126,
      "count": 65533,
      "max": [
        0.99995952844619751,
        0.99997645616531372,
        0.9999767541885376
      ],
      "min": [
        -0.99999827146530151,
        -0.99981421232223511,
        -0.99989825487136841
      ],
      "type": "VEC3"
    },
    {
      "bufferView": 3,
      "byteOffset": 6291104,
      "componentType": 5126,
      "count": 65533,
      "max": [
        0,
        0,
        0,
        1
      ],
      "min": [
        0,
        0,
        0,
        1
      ],
      "type": "VEC4"
    },
    {
      "bufferView": 3,
      "byteOffset": 7339632,
      "componentType": 5126,
      "count": 65533,
      "max": [
        1,
        1,
        1,
        1
      ],
      "min": [
        0.9843137264251709,
        0.9843137264251709,
        0.9843137264251709,
        1
      ],
      "type": "VEC4"
    },
    {
      "bufferView": 1,
      "byteOffset": 1572776,
      "componentType": 5126,
      "count": 65533,
      "max": [
        0,
        0
      ],
      "min": [
        0,
        0
      ],
      "type": "VEC2"
    },
    {
      "bufferView": 0,
      "byteOffset": 786480,
      "componentType": 5125,
      "count": 65544,
      "max": [
        65532
      ],
      "min": [
        0
      ],
      "type": "SCALAR"
    },
    {
      "bufferView": 2,
      "byteOffset": 6291120,
      "componentType": 5126,
      "count": 65534,
      "max": [
        1.1329959630966187,
        1.6830480098724365,
        3.9219388961791992
      ],
      "min": [
        -1.1327940225601196,
        -4.2135529518127441,
        -1.7453529834747314
      ],
      "type": "VEC3"
    },
    {
      "bufferView": 2,
      "byteOffset": 7077528,
      "componentType": 5126,
      "count": 65534,
      "max": [
        0.99998486042022705,
        0.99995553493499756,
        0.99996989965438843
      ],
      "min": [
        -0.99996739625930786,
        -0.99993574619293213,
        -0.99983757734298706
      ],
      "type": "VEC3"
    },
    {
      "bufferView": 3,
      "byteOffset": 8388160,
      "componentType": 5126,
      "count": 65534,
      "max": [
        0,
        0,
        0,
        1
      ],
      "min": [
        0,
        0,
        0,
        1
      ],
      "type": "VEC4"
    },
    {
      "bufferView": 3,
      "byteOffset": 9436704,
      "componentType": 5126,
      "count": 65534,
      "max": [
        1,
        1,
        1,
        1
      ],
      "min": [
        0.98039215803146362,
        0.98039215803146362,
        0.98039215803146362,
        1
      ],
      "type": "VEC4"
    },
    {
      "bufferView": 1,
      "byteOffset": 2097040,
      "componentType": 5126,
      "count": 65534,
      "max": [
        0,
        0
      ],
      "min": [
        0,
        0
      ],
      "type": "VEC2"
    },
    {
      "bufferView": 0,
      "byteOffset": 1048656,
      "componentType": 5125,
      "count": 65544,
      "max": [
        65533
      ],
      "min": [
        0
      ],
      "type": "SCALAR"
    },
    {
      "bufferView": 2,
      "byteOffset": 7863936,
      "componentType": 5126,
      "count": 65534,
      "max": [
        1.1304090023040771,
        1.6831309795379639,
        3.9225399494171143
      ],
      "min": [
        -1.1294430494308472,
        -4.2160792350769043,
        -1.7468580007553101
      ],
      "type": "VEC3"
    },
    {
      "bufferView": 2,
      "byteOffset": 8650344,
      "componentType": 5126,
      "count": 65534,
      "max": [
        0.99998819828033447,
        0.9999697208404541,
        0.99999040365219116
      ],
      "min": [
        -0.99988597631454468,
        -0.99994081258773804,
        -0.99978548288345337
      ],
      "type": "VEC3"
    },
    {
      "bufferView": 3,
      "byteOffset": 10485248,
      "componentType": 5126,
      "count": 65534,
      "max": [
        0,
        0,
        0,
        1
      ],
      "min": [
        0,
        0,
        0,
        1
      ],
      "type": "VEC4"
    },
    {
      "bufferView": 3,
      "byteOffset": 11533792,
      "componentType": 5126,
      "count": 65534,
      "max": [
        1,
        1,
        1,
        1
      ],
      "min": [
        0.9843137264251709,
        0.9843137264251709,
        0.9843137264251709,
        1
      ],
      "type": "VEC4"
    },
    {
      "bufferView": 1,
      "byteOffset": 2621312,
      "componentType": 5126,
      "count": 65534,
      "max": [
        0,
        0
      ],
      "min": [
        0,
        0
      ],
      "type": "VEC2"
    },
    {
      "bufferView": 0,
      "byteOffset": 1310832,
      "componentType": 5125,
      "count": 65541,
      "max": [
        65533
      ],
      "min": [
        0
      ],
      "type": "SCALAR"
    },
    {
      "bufferView": 2,
      "byteOffset": 9436752,
      "componentType": 5126,
      "count": 65534,
      "max": [
        1.132768988609314,
        1.6830480098724365,
        3.9225399494171143
      ],
      "min": [
        -1.1327940225601196,
        -4.2138562202453613,
        -1.7453529834747314
      ],
      "type": "VEC3"
    },
    {
      "bufferView": 2,
      "byteOffset": 10223160,
      "componentType": 5126,
      "count": 65534,
      "max": [
        0.99993628263473511,
        0.99994438886642456,
        0.99972456693649292
      ],
      "min": [
        -0.9999234676361084,
        -0.99991738796234131,
        -0.99972027540206909
      ],
      "type": "VEC3"
    },
    {
      "bufferView": 3,
      "byteOffset": 12582336,
      "componentType": 5126,
      "count": 65534,
      "max": [
        0,
        0,
        0,
        1
      ],
      "min": [
        0,
        0,
        0,
        1
      ],
      "type": "VEC4"
    },
    {
      "bufferView": 3,
      "byteOffset": 13630880,
      "componentType": 5126,
      "count": 65534,
      "max": [
        1,
        1,
        1,
        1
      ],
      "min": [
        0.9843137264251709,
        0.9843137264251709,
        0.9843137264251709,
        1
      ],
      "type": "VEC4"
    },
    {
      "bufferView": 1,
      "byteOffset": 3145584,
      "componentType": 5126,
      "count": 65534,
      "max": [
        0,
        0
      ],
      "min": [
        0,
        0
      ],
      "type": "VEC2"
    },
    {
      "bufferView": 0,
      "byteOffset": 1572996,
      "componentType": 5125,
      "count": 65538,
      "max": [
        65533
      ],
      "min": [
        0
      ],
      "type": "SCALAR"
    },
    {
      "bufferView": 2,
      "byteOffset": 11009568,
      "componentType": 5126,
      "count": 65534,
      "max": [
        1.1329959630966187,
        1.6830480098724365,
        3.9220180511474609
      ],
      "min": [
        -1.1327940225601196,
        -4.2163581848144531,
        -1.7468580007553101
      ],
      "type": "VEC3"
    },
    {
      "bufferView": 2,
      "byteOffset": 11795976,
      "componentType": 5126,
      "count": 65534,
      "max": [
        0.99998211860656738,
        0.99993091821670532,
        0.99993669986724854
      ],
      "min": [
        -0.99999195337295532,
        -0.99980664253234863,
        -0.99985283613204956
      ],
      "type": "VEC3"
    },
    {
      "bufferView": 3,
      "byteOffset": 14679424,
      "componentType": 5126,
      "count": 65534,
      "max": [
        0,
        0,
        0,
        1
      ],
      "min": [
        0,
        0,
        0,
        1
      ],
      "type": "VEC4"
    },
    {
      "bufferView": 3,
      "byteOffset": 15727968,
      "componentType": 5126,
      "count": 65534,
      "max": [
        1,
        1,
        1,
        1
      ],
      "min": [
        0.9843137264251709,
        0.9843137264251709,
        0.9843137264251709,
        1
      ],
      "type": "VEC4"
    },
    {
      "bufferView": 1,
      "byteOffset": 3669856,
      "componentType": 5126,
      "count": 65534,
      "max": [
        0,
        0
      ],
      "min": [
        0,
        0
      ],
      "type": "VEC2"
    },
    {
      "bufferView": 0,
      "byteOffset": 1835148,
      "componentType": 5125,
      "count": 65553,
      "max": [
        65533
      ],
      "min": [
        0
      ],
      "type": "SCALAR"
    },
    {
      "bufferView": 2,
      "byteOffset": 12582384,
      "componentType": 5126,
      "count": 65533,
      "max": [
        1.1314610242843628,
        1.6820590496063232,
        3.9221279621124268
      ],
      "min": [
        -1.1327370405197144,
        -4.2146100997924805,
        -1.7413090467453003
      ],
      "type": "VEC3"
    },
    {
      "bufferView": 2,
      "byteOffset": 13368780,
      "componentType": 5126,
      "count": 65533,
      "max": [
        0.99994343519210815,
        0.99998897314071655,
        0.99994832277297974
      ],
      "min": [
        -0.99996840953826904,
        -0.99979245662689209,
        -0.99988681077957153
      ],
      "type": "VEC3"
    },
    {
      "bufferView": 3,
      "byteOffset": 16776512,
      "componentType": 5126,
      "count": 65533,
      "max": [
        0,
        0,
        0,
        1
      ],
      "min": [
        0,
        0,
        0,
        1
      ],
      "type": "VEC4"
    },
    {
      "bufferView": 3,
      "byteOffset": 17825040,
      "componentType": 5126,
      "count": 65533,
      "max": [
        1,
        1,
        1,
        1
      ],
      "min": [
        0.9843137264251709,
        0.9843137264251709,
        0.9843137264251709,
        1
      ],
      "type": "VEC4"
    },
    {
      "bufferView": 1,
      "byteOffset": 4194128,
      "componentType": 5126,
      "count": 65533,
      "max": [
        0,
        0
      ],
      "min": [
        0,
        0
      ],
      "type": "VEC2"
    },
    {
      "bufferView": 0,
      "byteOffset": 2097360,
      "componentType": 5125,
      "count": 65544,
      "max": [
        65532
      ],
      "min": [
        0
      ],
      "type": "SCALAR"
    },
    {
      "bufferView": 2,
      "byteOffset": 14155176,
      "componentType": 5126,
      "count": 10252,
      "max": [
        1.1186000108718872,
        1.6783479452133179,
        3.9198710918426514
      ],
      "min": [
        -1.1306999921798706,
        -4.2017068862915039,
        -1.7462420463562012
      ],
      "type": "VEC3"
    },
    {
      "bufferView": 2,
      "byteOffset": 14278200,
      "componentType": 5126,
      "count": 10252,
      "max": [
        0.99969178438186646,
        0.99986451864242554,
        0.99958544969558716
      ],
      "min": [
        -0.99941009283065796,
        -0.99935758113861084,
        -0.99984622001647949
      ],
      "type": "VEC3"
    },
    {
      "bufferView": 3,
      "byteOffset": 18873568,
      "componentType": 5126,
      "count": 10252,
      "max": [
        0,
        0,
        0,
        1
      ],
      "min": [
        0,
        0,
        0,
        1
      ],
      "type": "VEC4"
    },
    {
      "bufferView": 3,
      "byteOffset": 19037600,
      "componentType": 5126,
      "count": 10252,
      "max": [
        1,
        1,
        1,
        1
      ],
      "min": [
        0.9843137264251709,
        0.9843137264251709,
        0.9843137264251709,
        1
      ],
      "type": "VEC4"
    },
    {
      "bufferView": 1,
      "byteOffset": 4718392,
      "componentType": 5126,
      "count": 10252,
      "max": [
        0,
        0
      ],
      "min": [
        0,
        0
      ],
      "type": "VEC2"
    },
    {
      "bufferView": 0,
      "byteOffset": 2359536,
      "componentType": 5125,
      "count": 10254,
      "max": [
        10251
      ],
      "min": [
        0
      ],
      "type": "SCALAR"
    }
  ],
  "asset": {
    "extras": {
      "author": "Chaitanya Krishnan (https://sketchfab.com/chaitanyak)",
      "license": "CC-BY-4.0 (http://creativecommons.org/licenses/by/4.0/)",
      "source": "https://sketchfab.com/models/649f13fb643b41e6b6db86b73cbaf388",
      "title": "Daily Doodle Horned creature"
    },
    "generator": "Sketchfab-3.47.8",
    "version": "2.0"
  },
  "bufferViews": [
    {
      "buffer": 0,
      "byteLength": 2400552,
      "byteOffset": 0,
      "name": "floatBufferViews",
      "target": 34963
    },
    {
      "buffer": 0,
      "byteLength": 4800408,
      "byteOffset": 2400552,
      "byteStride": 8,
      "name": "floatBufferViews",
      "target": 34962
    },
    {
      "buffer": 0,
      "byteLength": 14401224,
      "byteOffset": 7200960,
      "byteStride": 12,
      "name": "floatBufferViews",
      "target": 34962
    },
    {
      "buffer": 0,
      "byteLength": 19201632,
      "byteOffset": 21602184,
      "byteStride": 16,
      "name": "floatBufferViews",
      "target": 34962
    }
  ],
  "buffers": [
    {
      "byteLength": 40803816,
      "uri": "scene.bin"
    }
  ],
  "materials": [
    {
      "doubleSided": true,
      "emissiveFactor": [
        0,
        0,
        0
      ],
      "name": "Scene_-_Root",
      "pbrMetallicRoughness": {
        "baseColorFactor": [
          0.029301383399999999,
          0.4561037275,
          0.28985333479999997,
          1
        ],
        "metallicFactor": 0,
        "roughnessFactor": 0.2078598485
      }
    }
  ],
  "meshes": [
    {
      "primitives": [
        {
          "attributes": {
            "COLOR_0": 3,
            "NORMAL": 1,
            "POSITION": 0,
            "TANGENT": 2,
            "TEXCOORD_0": 4
          },
          "indices": 5,
          "material": 0,
          "mode": 4
        }
      ]
    },
    {
      "primitives": [
        {
          "attributes": {
            "COLOR_0": 9,
            "NORMAL": 7,
            "POSITION": 6,
            "TANGENT": 8,
            "TEXCOORD_0": 10
          },
          "indices": 11,
          "material": 0,
          "mode": 4
        }
      ]
    },
    {
      "primitives": [
        {
          "attributes": {
            "COLOR_0": 15,
            "NORMAL": 13,
            "POSITION": 12,
            "TANGENT": 14,
            "TEXCOORD_0": 16
          },
          "indices": 17,
          "material": 0,
          "mode": 4
        }
      ]
    },
    {
      "primitives": [
        {
          "attributes": {
            "COLOR_0": 21,
            "NORMAL": 19,
            "POSITION": 18,
            "TANGENT": 20,
            "TEXCOORD_0": 22
          },
          "indices": 23,
          "material": 0,
          "mode": 4
        }
      ]
    },
    {
      "primitives": [
        {
          "attributes": {
            "COLOR_0": 27,
            "NORMAL": 25,
            "POSITION": 24,
            "TANGENT": 26,
            "TEXCOORD_0": 28
          },
          "indices": 29,
          "material": 0,
          "mode": 4
        }
      ]
    },
    {
      "primitives": [
        {
          "attributes": {
            "COLOR_0": 33,
            "NORMAL": 31,
            "POSITION": 30,
            "TANGENT": 32,
            "TEXCOORD_0": 34
          },
          "indices": 35,
          "material": 0,
          "mode": 4
        }
      ]
    },
    {
      "primitives": [
        {
          "attributes": {
            "COLOR_0": 39,
            "NORMAL": 37,
            "POSITION": 36,
            "TANGENT": 38,
            "TEXCOORD_0": 40
          },
          "indices": 41,
          "material": 0,
          "mode": 4
        }
      ]
    },
    {
      "primitives": [
        {
          "attributes": {
            "COLOR_0": 45,
            "NORMAL": 43,
            "POSITION": 42,
            "TANGENT": 44,
            "TEXCOORD_0": 46
          },
          "indices": 47,
          "material": 0,
          "mode": 4
        }
      ]
    },
    {
      "primitives": [
        {
          "attributes": {
            "COLOR_0": 51,
            "NORMAL": 49,
            "POSITION": 48,
            "TANGENT": 50,
            "TEXCOORD_0": 52
          },
          "indices": 53,
          "material": 0,
          "mode": 4
        }
      ]
    },
    {
      "primitives": [
        {
          "attributes": {
            "COLOR_0": 57,
            "NORMAL": 55,
            "POSITION": 54,
            "TANGENT": 56,
            "TEXCOORD_0": 58
          },
          "indices": 59,
          "material": 0,
          "mode": 4
        }
      ]
    }
  ],
  "nodes": [
    {
      "children": [
        1
      ],
      "name": "RootNode (gltf orientation matrix)",
      "rotation": [
        -0.70710678118654746,
        -0,
        -0,
        0.70710678118654757
      ]
    },
    {
      "children": [
        2
      ],
      "matrix": [
        -1,
        0,
        0,
        0,
        0,
        0.99855756759643555,
        0.053691141307353973,
        0,
        0,
        0.053691141307353973,
        -0.99855756759643555,
        0,
        0.00020897389913443476,
        0.06643657386302948,
        -2.4729838371276855,
        1
      ],
      "name": "RootNode (model correction matrix)"
    },
    {
      "children": [
        3,
        4,
        5,
        6,
        7,
        8,
        9,
        10,
        11,
        12
      ],
      "matrix": [
        1,
        0,
        0,
        0,
        0,
        0,
        1,
        0,
        0,
        -1,
        0,
        0,
        0,
        0,
        0,
        1
      ],
      "name": "3e40dc787bfa4fb0a0c7317ba3dfbbaf.wrl.cleaner.materialmerger.gles"
    },
    {
      "mesh": 0,
      "name": ""
    },
    {
      "mesh": 1,
      "name": ""
    },
    {
      "mesh": 2,
      "name": ""
    },
    {
      "mesh": 3,
      "name": ""
    },
    {
      "mesh": 4,
      "name": ""
    },
    {
      "mesh": 5,
      "name": ""
    },
    {
      "mesh": 6,
      "name": ""
    },
    {
      "mesh": 7,
      "name": ""
    },
    {
      "mesh": 8,
      "name": ""
    },
    {
      "mesh": 9,
      "name": ""
    }
  ],
  "scene": 0,
  "scenes": [
    {
      "name": "OSG_Scene",
      "nodes": [
        0
      ]
    }
  ]
}

